<svg width="30" height="25" viewBox="0 0 30 25" fill="none" xmlns="http://www.w3.org/2000/svg">
<path d="M21.5538 1.77652C24.1363 1.77652 26.2313 12.1662 26.2313 25H30C30 11.1837 26.1975 0 21.5425 0C18.8837 0 16.5338 3.35034 14.9825 8.6167C13.4313 3.35154 11.0813 0 8.44375 0C3.78875 0 0 11.1742 0 24.9905H3.7675C3.7675 12.1578 5.84 1.77652 8.4225 1.77652C11.005 1.77652 13.0988 11.3745 13.0988 23.2139H16.845C16.845 11.3745 18.95 1.77652 21.5325 1.77652H21.5538Z" fill="#FFC600"/>
<path d="M17 14.3241C17 14.2477 16.6783 14.2686 16.6528 14.213C16.6272 14.1574 17.0092 13.7037 16.9537 13.6019C16.8981 13.5001 16.3886 13.7316 16.3564 13.6806C16.3244 13.6297 16.3889 13.2917 16.3333 13.25C16.2778 13.2083 15.75 13.7962 15.6759 13.7269C15.6019 13.6574 15.8472 12.5602 15.7966 12.5382C15.7459 12.5162 15.4167 12.6899 15.3751 12.6807C15.3336 12.6713 15.0758 12 15 12C14.9242 12 14.6664 12.6713 14.6249 12.6806C14.5833 12.6898 14.2541 12.5161 14.2034 12.5381C14.1528 12.5601 14.3981 13.6573 14.324 13.7268C14.25 13.7962 13.7222 13.2083 13.6667 13.25C13.6111 13.2917 13.6756 13.6297 13.6436 13.6806C13.6114 13.7314 13.1019 13.5 13.0463 13.6019C12.9908 13.7038 13.3729 14.1574 13.3472 14.213C13.3216 14.2686 13 14.2477 13 14.3241C13 14.4006 13.9376 14.9058 14 14.9653C14.0624 15.0248 13.6762 15.2767 13.7314 15.3241C13.7954 15.3792 14.158 15.2319 14.8889 15.2178V15.8889C14.8889 15.9184 14.9006 15.9466 14.9214 15.9675C14.9423 15.9883 14.9705 16 15 16C15.0295 16 15.0577 15.9883 15.0786 15.9675C15.0994 15.9466 15.1111 15.9184 15.1111 15.8889V15.2178C15.8419 15.2319 16.2046 15.3792 16.2686 15.3241C16.3237 15.2766 15.9376 15.0248 16 14.9653C16.0624 14.9058 17 14.4004 17 14.3241Z" fill="#DD2E44"/>
</svg>
